<svg width="100" height="21" viewBox="0 0 100 21" fill="none" xmlns="http://www.w3.org/2000/svg">
<path d="M1.40909 15V3.36362H8.38636V4.61362H2.81818V8.54544H7.86364V9.79544H2.81818V15H1.40909ZM9.82386 15H8.34659L12.6193 3.36362H14.0739L18.3466 15H16.8693L13.392 5.20453H13.3011L9.82386 15ZM10.3693 10.4545H16.3239V11.7045H10.3693V10.4545ZM21.3665 15L18.1847 3.36362H19.6165L22.0483 12.8409H22.1619L24.6392 3.36362H26.2301L28.7074 12.8409H28.821L31.2528 3.36362H32.6847L29.5028 15H28.0483L25.4801 5.72726H25.3892L22.821 15H21.3665ZM34.0114 15H32.5341L36.8068 3.36362H38.2614L42.5341 15H41.0568L37.5795 5.20453H37.4886L34.0114 15ZM34.5568 10.4545H40.5114V11.7045H34.5568V10.4545Z" fill="#109986"/>
<path d="M43.9489 15V3.36362H48.5398C49.4223 3.36362 50.1742 3.53218 50.7955 3.8693C51.4167 4.20264 51.8902 4.66665 52.2159 5.26135C52.5455 5.85226 52.7102 6.53408 52.7102 7.3068C52.7102 8.07953 52.5436 8.76135 52.2102 9.35226C51.8769 9.94317 51.3939 10.4034 50.7614 10.7329C50.1326 11.0625 49.3712 11.2273 48.4773 11.2273H45.5511V9.25567H48.0795C48.553 9.25567 48.9432 9.17423 49.25 9.01135C49.5606 8.84468 49.7917 8.61551 49.9432 8.32385C50.0985 8.02839 50.1761 7.68938 50.1761 7.3068C50.1761 6.92044 50.0985 6.58332 49.9432 6.29544C49.7917 6.00377 49.5606 5.77839 49.25 5.6193C48.9394 5.45642 48.5455 5.37498 48.0682 5.37498H46.4091V15H43.9489ZM54.9702 15H52.3338L56.3509 3.36362H59.5213L63.5327 15H60.8963L57.9815 6.02271H57.8906L54.9702 15ZM54.8054 10.4261H61.0327V12.3466H54.8054V10.4261ZM63.0639 3.36362H65.8196L68.473 8.37498H68.5866L71.2401 3.36362H73.9957L69.7514 10.8863V15H67.3082V10.8863L63.0639 3.36362Z" fill="white"/>
<path fill-rule="evenodd" clip-rule="evenodd" d="M84.2028 13.8617L84.1995 13.8662L84.1963 13.8707C84.0183 14.1227 83.6196 14.1968 83.3077 13.9765C83.0581 13.8002 82.9831 13.4074 83.1957 13.097C83.5128 12.6927 83.7431 12.2201 83.8944 11.7581C84.0519 11.2771 84.1251 10.7305 84.1223 10.1944C84.1194 9.65838 84.0404 9.11262 83.8778 8.63333C83.7216 8.17295 83.4862 7.7028 83.1648 7.30194C82.9489 6.99377 83.0198 6.60017 83.2675 6.42122C83.577 6.19768 83.9765 6.26749 84.1571 6.51761L84.1604 6.5221L84.1637 6.5265C84.5638 7.05405 84.8919 7.64018 85.088 8.21523C85.2944 8.89171 85.4259 9.54608 85.4293 10.1875C85.4329 10.8624 85.3684 11.5013 85.1207 12.1302C84.851 12.8151 84.5898 13.34 84.2028 13.8617ZM87.0954 15.1145L87.1032 15.1034L87.1104 15.0919C87.9971 13.6713 88.5085 11.957 88.499 10.1711C88.4895 8.3857 87.9601 6.67737 87.0587 5.26646C86.8634 4.95669 86.9511 4.59045 87.2804 4.35261C87.5015 4.19288 87.9166 4.24944 88.1629 4.57952C89.1806 6.19416 89.7953 8.146 89.8061 10.1642C89.8172 12.2512 89.2238 14.1397 88.2224 15.7661C87.9908 16.085 87.6361 16.1743 87.3303 15.9936C86.9988 15.7507 86.9382 15.337 87.0954 15.1145ZM92.2861 2.45724L92.2948 2.47449L92.3049 2.49097C93.6839 4.73919 94.4502 7.33243 94.4652 10.1394C94.4801 12.945 93.7421 15.5451 92.3884 17.8072C92.1808 18.1409 91.8304 18.235 91.4752 18.0697C91.1519 17.859 91.065 17.5098 91.2339 17.1571C92.3852 15.1125 93.1011 12.703 93.0875 10.1467C93.074 7.60176 92.4085 5.19618 91.1569 3.15136C90.9875 2.80222 91.0714 2.45448 91.3909 2.24137C91.7763 2.05725 92.1518 2.1922 92.2861 2.45724ZM96.3691 0.317663L96.3751 0.329447L96.3817 0.340883C98.0528 3.22941 99.0346 6.53184 99.0536 10.1149C99.0727 13.6943 98.1281 17.0039 96.491 19.9079C96.2831 20.2378 95.9343 20.3302 95.5808 20.1656C95.2585 19.9556 95.1712 19.608 95.3379 19.2564C96.915 16.5648 97.7643 13.4463 97.7466 10.1219C97.7288 6.78887 96.7717 3.68251 95.2427 1.0174C95.0511 0.628355 95.1861 0.247321 95.4535 0.111831C95.846 -0.0870442 96.2325 0.0479558 96.3691 0.317663Z" fill="white"/>
</svg>
